<?xml version="1.0" standalone="no"?>
<!DOCTYPE svg PUBLIC "-//W3C//DTD SVG 20010904//EN"
 "http://www.w3.org/TR/2001/REC-SVG-20010904/DTD/svg10.dtd">
<svg version="1.0" xmlns="http://www.w3.org/2000/svg"
 width="1024.000000pt" height="1024.000000pt" viewBox="102.4 102.4 819.2 819.2"
 preserveAspectRatio="xMidYMid meet">

<g transform="translate(0.000000,1024.000000) scale(0.100000,-0.100000)"
stroke="none">
<path fill="#87ceeb" d="M4840 7739 c-750 -82 -1401 -453 -1827 -1039 l-62 -86 -118 17 c-262
39 -484 51 -803 46 -254 -4 -321 -8 -400 -25 -301 -64 -458 -194 -476 -394
-30 -316 367 -710 1182 -1172 l171 -97 7 -86 c41 -498 242 -1001 562 -1403 37
-47 124 -141 193 -210 418 -416 952 -679 1534 -755 155 -20 474 -20 637 0 321
40 594 123 875 264 302 153 562 357 804 629 35 39 67 70 70 67 13 -8 375 -44
558 -56 241 -15 675 -7 803 15 268 47 431 139 502 284 129 261 -73 586 -596
959 -149 107 -303 206 -527 339 l-176 106 -12 164 c-36 505 -178 923 -449
1319 -104 153 -178 241 -312 375 -400 401 -868 631 -1470 725 -124 20 -541 28
-670 14z m495 -239 c576 -54 1054 -267 1444 -645 106 -103 231 -245 231 -263
0 -15 -172 -151 -275 -218 -274 -178 -579 -283 -985 -340 -156 -22 -664 -26
-835 -6 -398 46 -697 111 -1010 219 -164 57 -314 123 -528 230 l-168 84 51 62
c105 126 336 349 407 390 6 4 78 -21 160 -56 108 -46 188 -89 293 -158 415
-270 775 -372 1230 -347 244 13 460 72 695 187 167 82 222 120 241 168 27 64
-7 133 -76 154 -44 13 -22 21 -242 -93 -119 -62 -273 -117 -423 -150 -85 -19
-132 -22 -310 -22 -180 -1 -226 2 -323 22 -234 47 -412 123 -627 268 -109 73
-237 142 -355 191 -24 10 -22 12 50 49 281 144 511 220 785 258 189 27 391 32
570 16z m-2844 -1075 c154 -13 310 -33 317 -40 2 -2 -18 -45 -43 -96 -88 -174
-171 -415 -209 -604 -21 -107 -46 -304 -46 -366 0 -27 -3 -49 -7 -49 -24 0
-380 219 -538 331 -382 271 -595 512 -571 643 13 70 117 136 257 165 157 33
566 40 840 16z m4748 -185 c32 -63 71 -148 86 -188 l28 -73 -49 -50 c-177
-183 -487 -400 -773 -544 -364 -182 -703 -282 -1136 -336 -154 -20 -590 -17
-765 5 -396 48 -762 153 -1154 331 -122 55 -155 66 -184 62 -42 -7 -70 -31
-89 -75 -17 -41 -4 -98 30 -130 28 -27 280 -140 457 -207 266 -99 615 -184
915 -222 199 -25 665 -25 860 1 371 47 695 136 1023 281 324 143 659 356 883
563 l66 61 11 -52 c35 -163 62 -407 62 -563 0 -86 2 -83 -135 -179 -322 -224
-741 -417 -1274 -589 -288 -93 -753 -193 -851 -184 -55 6 -508 149 -815 258
-552 197 -987 378 -1467 612 l-228 111 0 41 c0 80 30 317 54 438 30 147 68
276 124 418 38 97 131 289 153 316 7 8 70 -20 214 -93 477 -243 917 -376 1475
-447 420 -54 900 -44 1245 25 404 81 748 237 1045 475 122 97 103 104 189 -66z
m630 -1447 c345 -210 611 -403 762 -553 115 -115 161 -176 196 -260 28 -68 29
-105 3 -147 -38 -64 -134 -106 -310 -138 -123 -23 -627 -32 -839 -16 -141 11
-333 31 -339 36 -1 1 15 31 37 67 92 151 194 380 250 564 37 118 88 360 97
457 4 37 9 67 12 67 3 0 62 -35 131 -77z m-4874 -51 c1138 -538 2372 -934
3590 -1152 127 -23 247 -44 269 -48 l39 -7 -99 -95 c-355 -340 -736 -542
-1199 -635 -775 -156 -1588 91 -2154 655 -342 339 -568 770 -656 1247 -14 74
-25 137 -25 140 0 7 -11 11 235 -105z m4445 -159 c-50 -220 -176 -523 -304
-733 -32 -52 -59 -96 -60 -97 -1 -1 -60 6 -132 17 -392 60 -1143 218 -1104
233 8 3 83 24 165 47 470 132 1030 372 1375 591 41 26 76 46 79 44 2 -2 -7
-48 -19 -102z"/>
<path fill="#87ceeb" d="M3403 4105 c-39 -17 -73 -68 -73 -110 0 -65 30 -92 188 -167 436
-207 811 -338 1122 -392 301 -52 647 -42 780 22 50 24 76 81 61 132 -14 46
-62 90 -99 90 -15 0 -63 -7 -107 -17 -113 -23 -384 -23 -533 0 -320 50 -677
171 -1094 370 -179 86 -200 92 -245 72z"/>
</g>
</svg>
